<svg width="49" height="42" viewBox="0 0 49 42" fill="none" xmlns="http://www.w3.org/2000/svg">
<path d="M1.24 11.592C0.992 11.592 0.776 11.58 0.592 11.556C0.407999 11.532 0.247999 11.504 0.112 11.472V9.828C0.231999 9.852 0.359999 9.876 0.495999 9.9C0.624 9.932 0.764 9.948 0.916 9.948C1.172 9.948 1.372 9.9 1.516 9.804C1.66 9.708 1.76 9.548 1.816 9.324C1.88 9.1 1.912 8.796 1.912 8.412V0.431996H4.096V8.316C4.096 9.108 3.976 9.744 3.736 10.224C3.496 10.712 3.16 11.06 2.728 11.268C2.304 11.484 1.808 11.592 1.24 11.592Z" fill="black"/>
<path d="M12.6887 5.796C12.6887 6.452 12.5607 7.032 12.3047 7.536C12.0487 8.032 11.6607 8.42 11.1407 8.7C10.6287 8.98 9.98866 9.12 9.22066 9.12C8.10866 9.12 7.25666 8.824 6.66466 8.232C6.08066 7.64 5.78866 6.832 5.78866 5.808V0.431996H7.97266V5.58C7.97266 6.236 8.08066 6.704 8.29666 6.984C8.51266 7.264 8.82866 7.404 9.24466 7.404C9.54066 7.404 9.78066 7.34 9.96466 7.212C10.1567 7.084 10.2967 6.884 10.3847 6.612C10.4727 6.34 10.5167 5.992 10.5167 5.568V0.431996H12.6887V5.796Z" fill="black"/>
<path d="M21.2079 4.584C21.2079 5.56 21.0319 6.376 20.6799 7.032C20.3359 7.688 19.8479 8.18 19.2159 8.508C18.5839 8.836 17.8359 9 16.9719 9H14.3799V0.431996H17.1639C18.0279 0.431996 18.7599 0.591996 19.3599 0.911997C19.9679 1.232 20.4279 1.7 20.7399 2.316C21.0519 2.924 21.2079 3.68 21.2079 4.584ZM18.9639 4.656C18.9639 4.072 18.8959 3.592 18.7599 3.216C18.6319 2.84 18.4359 2.56 18.1719 2.376C17.9079 2.192 17.5799 2.1 17.1879 2.1H16.5519V7.32H17.0319C17.6959 7.32 18.1839 7.1 18.4959 6.66C18.8079 6.212 18.9639 5.544 18.9639 4.656Z" fill="black"/>
<path d="M27.3744 9L26.9784 7.164H24.3624L23.9544 9H21.5664L24.1944 0.395997H27.0864L29.7504 9H27.3744ZM26.0784 3.732C26.0384 3.556 25.9904 3.364 25.9344 3.156C25.8864 2.94 25.8384 2.72 25.7904 2.496C25.7424 2.264 25.6984 2.04 25.6584 1.824C25.6264 2.04 25.5864 2.264 25.5384 2.496C25.4904 2.72 25.4424 2.94 25.3944 3.156C25.3544 3.364 25.3104 3.556 25.2624 3.732L24.8064 5.46H26.5344L26.0784 3.732Z" fill="black"/>
<path d="M35.8661 6.516C35.8661 7.004 35.7581 7.448 35.5421 7.848C35.3261 8.24 34.9821 8.552 34.5101 8.784C34.0461 9.008 33.4501 9.12 32.7221 9.12C32.3461 9.12 32.0181 9.1 31.7381 9.06C31.4661 9.02 31.2101 8.964 30.9701 8.892C30.7381 8.812 30.4941 8.712 30.2381 8.592V6.732C30.6701 6.932 31.1061 7.1 31.5461 7.236C31.9941 7.372 32.4021 7.44 32.7701 7.44C32.9861 7.44 33.1621 7.408 33.2981 7.344C33.4341 7.272 33.5341 7.18 33.5981 7.068C33.6621 6.948 33.6941 6.812 33.6941 6.66C33.6941 6.476 33.6461 6.32 33.5501 6.192C33.4621 6.056 33.3101 5.928 33.0941 5.808C32.8781 5.68 32.5941 5.544 32.2421 5.4C31.9461 5.272 31.6781 5.136 31.4381 4.992C31.1981 4.84 30.9941 4.668 30.8261 4.476C30.6581 4.276 30.5261 4.04 30.4301 3.768C30.3421 3.488 30.2981 3.16 30.2981 2.784C30.2981 2.248 30.4261 1.8 30.6821 1.44C30.9381 1.072 31.2901 0.791996 31.7381 0.599996C32.1941 0.407996 32.7221 0.311996 33.3221 0.311996C33.8501 0.311996 34.3221 0.367996 34.7381 0.479996C35.1621 0.591996 35.5421 0.735996 35.8781 0.911997L35.2061 2.508C34.8701 2.34 34.5341 2.212 34.1981 2.124C33.8621 2.028 33.5501 1.98 33.2621 1.98C33.0701 1.98 32.9141 2.012 32.7941 2.076C32.6741 2.132 32.5861 2.216 32.5301 2.328C32.4741 2.432 32.4461 2.556 32.4461 2.7C32.4461 2.868 32.4941 3.016 32.5901 3.144C32.6941 3.264 32.8621 3.388 33.0941 3.516C33.3261 3.644 33.6381 3.808 34.0301 4.008C34.4221 4.192 34.7541 4.396 35.0261 4.62C35.3061 4.836 35.5141 5.096 35.6501 5.4C35.7941 5.696 35.8661 6.068 35.8661 6.516Z" fill="black"/>
<path d="M39.0583 7.572C38.9943 7.852 38.9063 8.172 38.7943 8.532C38.6903 8.892 38.5783 9.252 38.4583 9.612C38.3383 9.98 38.2143 10.312 38.0863 10.608H36.5623C36.6343 10.264 36.7063 9.904 36.7783 9.528C36.8503 9.152 36.9143 8.784 36.9703 8.424C37.0263 8.064 37.0703 7.736 37.1023 7.44H38.9743L39.0583 7.572Z" fill="black"/>
<path d="M7.54 25L6.508 22.348H3.112L2.092 25H1L4.348 16.396H5.32L8.656 25H7.54ZM5.224 18.796C5.2 18.732 5.16 18.616 5.104 18.448C5.048 18.28 4.992 18.108 4.936 17.932C4.888 17.748 4.848 17.608 4.816 17.512C4.776 17.672 4.732 17.836 4.684 18.004C4.644 18.164 4.6 18.312 4.552 18.448C4.512 18.584 4.476 18.7 4.444 18.796L3.472 21.388H6.184L5.224 18.796Z" fill="black"/>
<path d="M13.8721 23.224C13.8721 23.64 13.7681 23.988 13.5601 24.268C13.3521 24.548 13.0561 24.76 12.6721 24.904C12.2881 25.048 11.8321 25.12 11.3041 25.12C10.8561 25.12 10.4681 25.084 10.1401 25.012C9.82006 24.94 9.53606 24.84 9.28806 24.712V23.752C9.54406 23.88 9.85206 24 10.2121 24.112C10.5801 24.216 10.9521 24.268 11.3281 24.268C11.8641 24.268 12.2521 24.184 12.4921 24.016C12.7321 23.84 12.8521 23.608 12.8521 23.32C12.8521 23.16 12.8081 23.016 12.7201 22.888C12.6321 22.76 12.4721 22.632 12.2401 22.504C12.0161 22.376 11.6921 22.232 11.2681 22.072C10.8521 21.912 10.4961 21.752 10.2001 21.592C9.90406 21.432 9.67606 21.24 9.51606 21.016C9.35606 20.792 9.27606 20.504 9.27606 20.152C9.27606 19.608 9.49606 19.188 9.93606 18.892C10.3841 18.596 10.9681 18.448 11.6881 18.448C12.0801 18.448 12.4441 18.488 12.7801 18.568C13.1241 18.64 13.4441 18.744 13.7401 18.88L13.3801 19.72C13.2041 19.64 13.0161 19.572 12.8161 19.516C12.6241 19.452 12.4281 19.404 12.2281 19.372C12.0281 19.332 11.8241 19.312 11.6161 19.312C11.1841 19.312 10.8521 19.384 10.6201 19.528C10.3961 19.664 10.2841 19.852 10.2841 20.092C10.2841 20.268 10.3361 20.42 10.4401 20.548C10.5441 20.668 10.7161 20.788 10.9561 20.908C11.2041 21.02 11.5321 21.156 11.9401 21.316C12.3481 21.468 12.6961 21.624 12.9841 21.784C13.2721 21.944 13.4921 22.14 13.6441 22.372C13.7961 22.596 13.8721 22.88 13.8721 23.224Z" fill="black"/>
<path d="M19.5994 18.1C19.5994 18.372 19.5914 18.628 19.5754 18.868C19.5674 19.1 19.5554 19.284 19.5394 19.42H19.5994C19.7834 19.148 20.0354 18.92 20.3554 18.736C20.6754 18.552 21.0874 18.46 21.5914 18.46C22.3914 18.46 23.0314 18.74 23.5114 19.3C23.9994 19.852 24.2434 20.68 24.2434 21.784C24.2434 22.52 24.1314 23.136 23.9074 23.632C23.6914 24.128 23.3834 24.5 22.9834 24.748C22.5834 24.996 22.1194 25.12 21.5914 25.12C21.0874 25.12 20.6754 25.028 20.3554 24.844C20.0354 24.66 19.7834 24.44 19.5994 24.184H19.5154L19.2994 25H18.5434V15.88H19.5994V18.1ZM21.4114 19.336C20.9554 19.336 20.5954 19.424 20.3314 19.6C20.0674 19.768 19.8794 20.032 19.7674 20.392C19.6554 20.744 19.5994 21.196 19.5994 21.748V21.796C19.5994 22.588 19.7274 23.196 19.9834 23.62C20.2474 24.036 20.7314 24.244 21.4354 24.244C22.0114 24.244 22.4394 24.032 22.7194 23.608C23.0074 23.184 23.1514 22.572 23.1514 21.772C23.1514 20.964 23.0074 20.356 22.7194 19.948C22.4394 19.54 22.0034 19.336 21.4114 19.336Z" fill="black"/>
<path d="M31.5182 21.772C31.5182 22.308 31.4462 22.784 31.3022 23.2C31.1662 23.608 30.9662 23.956 30.7022 24.244C30.4462 24.532 30.1302 24.752 29.7542 24.904C29.3862 25.048 28.9742 25.12 28.5182 25.12C28.0942 25.12 27.7022 25.048 27.3422 24.904C26.9822 24.752 26.6703 24.532 26.4062 24.244C26.1423 23.956 25.9342 23.608 25.7822 23.2C25.6382 22.784 25.5662 22.308 25.5662 21.772C25.5662 21.06 25.6863 20.46 25.9263 19.972C26.1663 19.476 26.5103 19.1 26.9583 18.844C27.4063 18.58 27.9382 18.448 28.5542 18.448C29.1382 18.448 29.6502 18.58 30.0903 18.844C30.5383 19.1 30.8863 19.476 31.1343 19.972C31.3903 20.46 31.5182 21.06 31.5182 21.772ZM26.6582 21.772C26.6582 22.276 26.7223 22.716 26.8503 23.092C26.9863 23.46 27.1942 23.744 27.4742 23.944C27.7542 24.144 28.1102 24.244 28.5422 24.244C28.9742 24.244 29.3303 24.144 29.6103 23.944C29.8903 23.744 30.0942 23.46 30.2222 23.092C30.3582 22.716 30.4263 22.276 30.4263 21.772C30.4263 21.26 30.3582 20.824 30.2222 20.464C30.0863 20.104 29.8782 19.828 29.5982 19.636C29.3262 19.436 28.9703 19.336 28.5303 19.336C27.8743 19.336 27.3982 19.552 27.1022 19.984C26.8062 20.416 26.6582 21.012 26.6582 21.772Z" fill="black"/>
<path d="M35.3399 24.256C35.4999 24.256 35.6639 24.244 35.8319 24.22C35.9999 24.188 36.1359 24.156 36.2399 24.124V24.928C36.1279 24.984 35.9679 25.028 35.7599 25.06C35.5519 25.1 35.3519 25.12 35.1599 25.12C34.8239 25.12 34.5119 25.064 34.2239 24.952C33.9439 24.832 33.7159 24.628 33.5399 24.34C33.3639 24.052 33.2759 23.648 33.2759 23.128V19.384H32.3639V18.88L33.2879 18.46L33.7079 17.092H34.3319V18.568H36.1919V19.384H34.3319V23.104C34.3319 23.496 34.4239 23.788 34.6079 23.98C34.7999 24.164 35.0439 24.256 35.3399 24.256Z" fill="black"/>
<path d="M39.9638 18.46C40.7478 18.46 41.3278 18.632 41.7038 18.976C42.0798 19.32 42.2678 19.868 42.2678 20.62V25H41.4998L41.2958 24.088H41.2478C41.0638 24.32 40.8718 24.516 40.6718 24.676C40.4798 24.828 40.2558 24.94 39.9998 25.012C39.7518 25.084 39.4478 25.12 39.0878 25.12C38.7038 25.12 38.3558 25.052 38.0438 24.916C37.7398 24.78 37.4998 24.572 37.3238 24.292C37.1478 24.004 37.0598 23.644 37.0598 23.212C37.0598 22.572 37.3118 22.08 37.8158 21.736C38.3198 21.384 39.0958 21.192 40.1438 21.16L41.2358 21.124V20.74C41.2358 20.204 41.1198 19.832 40.8878 19.624C40.6558 19.416 40.3278 19.312 39.9038 19.312C39.5678 19.312 39.2478 19.364 38.9438 19.468C38.6398 19.564 38.3558 19.676 38.0918 19.804L37.7678 19.012C38.0478 18.86 38.3798 18.732 38.7638 18.628C39.1478 18.516 39.5478 18.46 39.9638 18.46ZM40.2758 21.892C39.4758 21.924 38.9198 22.052 38.6078 22.276C38.3038 22.5 38.1518 22.816 38.1518 23.224C38.1518 23.584 38.2598 23.848 38.4758 24.016C38.6998 24.184 38.9838 24.268 39.3278 24.268C39.8718 24.268 40.3238 24.12 40.6838 23.824C41.0438 23.52 41.2238 23.056 41.2238 22.432V21.856L40.2758 21.892Z" fill="black"/>
<path d="M48.4424 23.224C48.4424 23.64 48.3384 23.988 48.1304 24.268C47.9224 24.548 47.6264 24.76 47.2424 24.904C46.8584 25.048 46.4024 25.12 45.8744 25.12C45.4264 25.12 45.0384 25.084 44.7104 25.012C44.3904 24.94 44.1064 24.84 43.8584 24.712V23.752C44.1144 23.88 44.4224 24 44.7824 24.112C45.1504 24.216 45.5224 24.268 45.8984 24.268C46.4344 24.268 46.8224 24.184 47.0624 24.016C47.3024 23.84 47.4224 23.608 47.4224 23.32C47.4224 23.16 47.3784 23.016 47.2904 22.888C47.2024 22.76 47.0424 22.632 46.8104 22.504C46.5864 22.376 46.2624 22.232 45.8384 22.072C45.4224 21.912 45.0664 21.752 44.7704 21.592C44.4744 21.432 44.2464 21.24 44.0864 21.016C43.9264 20.792 43.8464 20.504 43.8464 20.152C43.8464 19.608 44.0664 19.188 44.5064 18.892C44.9544 18.596 45.5384 18.448 46.2584 18.448C46.6504 18.448 47.0144 18.488 47.3504 18.568C47.6944 18.64 48.0144 18.744 48.3104 18.88L47.9504 19.72C47.7744 19.64 47.5864 19.572 47.3864 19.516C47.1944 19.452 46.9984 19.404 46.7984 19.372C46.5984 19.332 46.3944 19.312 46.1864 19.312C45.7544 19.312 45.4224 19.384 45.1904 19.528C44.9664 19.664 44.8544 19.852 44.8544 20.092C44.8544 20.268 44.9064 20.42 45.0104 20.548C45.1144 20.668 45.2864 20.788 45.5264 20.908C45.7744 21.02 46.1024 21.156 46.5104 21.316C46.9184 21.468 47.2664 21.624 47.5544 21.784C47.8424 21.944 48.0624 22.14 48.2144 22.372C48.3664 22.596 48.4424 22.88 48.4424 23.224Z" fill="black"/>
<path d="M1.456 41L3.268 32.432H5.212C6.188 32.432 6.948 32.708 7.492 33.26C8.044 33.812 8.32 34.656 8.32 35.792C8.32 36.392 8.252 36.956 8.116 37.484C7.98 38.012 7.78 38.492 7.516 38.924C7.252 39.348 6.924 39.716 6.532 40.028C6.14 40.34 5.688 40.58 5.176 40.748C4.672 40.916 4.112 41 3.496 41H1.456ZM3.568 40.076C4.04 40.076 4.464 40.008 4.84 39.872C5.224 39.728 5.56 39.528 5.848 39.272C6.144 39.008 6.392 38.7 6.592 38.348C6.792 37.988 6.94 37.592 7.036 37.16C7.14 36.728 7.192 36.272 7.192 35.792C7.192 34.936 7 34.316 6.616 33.932C6.232 33.548 5.72 33.356 5.08 33.356H4.132L2.728 40.076H3.568Z" fill="black"/>
<path d="M11.3892 41.12C10.9252 41.12 10.5252 41.024 10.1892 40.832C9.86119 40.632 9.60919 40.356 9.43319 40.004C9.26519 39.644 9.18119 39.22 9.18119 38.732C9.18119 38.22 9.25319 37.712 9.39719 37.208C9.54119 36.704 9.74919 36.244 10.0212 35.828C10.2932 35.412 10.6212 35.08 11.0052 34.832C11.3892 34.576 11.8252 34.448 12.3132 34.448C12.8972 34.448 13.3332 34.58 13.6212 34.844C13.9172 35.1 14.0652 35.46 14.0652 35.924C14.0652 36.244 13.9932 36.544 13.8492 36.824C13.7132 37.096 13.5012 37.336 13.2132 37.544C12.9252 37.752 12.5532 37.916 12.0972 38.036C11.6492 38.156 11.1092 38.216 10.4772 38.216H10.2732C10.2652 38.296 10.2572 38.376 10.2492 38.456C10.2492 38.536 10.2492 38.612 10.2492 38.684C10.2492 39.172 10.3572 39.556 10.5732 39.836C10.7972 40.108 11.1372 40.244 11.5932 40.244C11.8812 40.244 12.1532 40.2 12.4092 40.112C12.6732 40.024 12.9612 39.904 13.2732 39.752L13.2612 40.652C12.9652 40.788 12.6772 40.9 12.3972 40.988C12.1172 41.076 11.7812 41.12 11.3892 41.12ZM10.5252 37.364C10.9812 37.364 11.3972 37.324 11.7732 37.244C12.1572 37.156 12.4612 37.012 12.6852 36.812C12.9172 36.612 13.0332 36.348 13.0332 36.02C13.0332 35.82 12.9692 35.656 12.8412 35.528C12.7132 35.392 12.5132 35.324 12.2412 35.324C12.0012 35.324 11.7612 35.404 11.5212 35.564C11.2892 35.724 11.0772 35.956 10.8852 36.26C10.6932 36.564 10.5412 36.932 10.4292 37.364H10.5252Z" fill="black"/>
</svg>
